<?xml version="1.0" ?><svg id="Layer_1_1_" style="enable-background:new 0 0 64 64;" version="1.1" viewBox="0 0 64 64" xml:space="preserve" xmlns="http://www.w3.org/2000/svg" xmlns:xlink="http://www.w3.org/1999/xlink"><g><path d="M1,63h48V1H1V63z M3,3h44v58H3V3z" style="fill:#3F3A34;"/><path d="M24,17v2h2v-2c1.654,0,3-1.346,3-3s-1.346-3-3-3h-2c-0.552,0-1-0.448-1-1s0.448-1,1-1h2   c0.552,0,1,0.448,1,1v1h2v-1c0-1.654-1.346-3-3-3V5h-2v2c-1.654,0-3,1.346-3,3s1.346,3,3,3h2c0.552,0,1,0.448,1,1s-0.448,1-1,1h-2   c-0.552,0-1-0.448-1-1v-1h-2v1C21,15.654,22.346,17,24,17z" style="fill:#3F3A34;"/><path d="M33,23H5v22h28v8h12v-8v-1V24v-1v-4H33V23z M33,25v2H11v2h22v2H7v-2h2v-2H7v-2H33z M43,35h-2v2h2v2   h-8v-2h4v-2h-4v-2h8V35z M43,41v2h-8v-2H43z M33,37v2H7v-2H33z M7,35v-2h26v2H7z M43,31h-8v-2h8V31z M43,27h-8v-2h8V27z M7,43v-2   h26v2H7z M43,51h-8v-6h8V51z M43,21v2h-8v-2H43z" style="fill:#3F3A34;"/><path d="M62,49.937V6c0-2.757-2.243-5-5-5s-5,2.243-5,5v43.937l-1.073,8.585L57,62.166l6.073-3.644   L62,49.937z M54,49V13h6v36H54z M60,11h-6V9h6V11z M57,3c1.654,0,3,1.346,3,3v1h-6V6C54,4.346,55.346,3,57,3z M57,59.834   l-3.927-2.356L53.883,51H56v4h2v-4h2.117l0.81,6.478L57,59.834z" style="fill:#3F3A34;"/><rect height="2" style="fill:#3F3A34;" width="2" x="31" y="11"/><rect height="2" style="fill:#3F3A34;" width="2" x="17" y="11"/></g></svg>